<svg xmlns="http://www.w3.org/2000/svg" width="32" height="32" viewBox="0 0 32 32">
  <defs>
    <linearGradient id="gradient" x1="0%" y1="0%" x2="100%" y2="0%">
      <stop offset="0%" style="stop-color:#2563eb"/> <!-- blue-600 -->
      <stop offset="100%" style="stop-color:#9333ea"/> <!-- purple-600 -->
    </linearGradient>
  </defs>
  <rect width="32" height="32" rx="8" fill="url(#gradient)"/>
  <path d="M16 10.5a5.5 5.5 0 1 0 0 11 5.5 5.5 0 0 0 0-11zm0 2a3.5 3.5 0 1 1 0 7 3.5 3.5 0 0 1 0-7z M16 7a9 9 0 1 0 0 18 9 9 0 0 0 0-18zm0 2a7 7 0 1 1 0 14 7 7 0 0 1 0-14z" fill="white"/>
</svg>
